<?xml version="1.0" encoding="utf-8"?>
<!-- Generator: Adobe Illustrator 27.5.0, SVG Export Plug-In . SVG Version: 6.00 Build 0)  -->
<svg version="1.1" xmlns="http://www.w3.org/2000/svg" xmlns:xlink="http://www.w3.org/1999/xlink" x="0px" y="0px"
	 viewBox="0 0 3710 3710" style="enable-background:new 0 0 3710 3710;" xml:space="preserve">
<g id="Background">
	<g>
		<g>
			<rect style="fill:#FFFFFF;" width="3710" height="3710"/>
		</g>
	</g>
</g>
<g id="Illustration">
	<g>
		<linearGradient id="SVGID_1_" gradientUnits="userSpaceOnUse" x1="3550.2517" y1="4014.4536" x2="1100.8402" y2="972.4384">
			<stop  offset="0" style="stop-color:#B37CFF"/>
			<stop  offset="1" style="stop-color:#F895E7"/>
		</linearGradient>
		<path style="opacity:0.3;fill:url(#SVGID_1_);" d="M2876.403,2814.793c-56.262,59.23-109.497,97.427-151.556,127.605
			c-494.402,354.739-1079.412,251.334-1203.743,226.082c-183.598-37.29-538.488-109.37-795.068-411.102
			C337.852,2300.882,398.298,1581.686,699.4,1106.934c55.076-86.84,346.004-568.823,937.315-646.118
			c357.854-46.778,774.998,47.568,1077.082,300.654C3347.897,1292.721,3302.756,2365.942,2876.403,2814.793z"/>
		<g>
			
				<linearGradient id="SVGID_00000164481440313469815880000001538574626731542944_" gradientUnits="userSpaceOnUse" x1="-943.0844" y1="2842.0374" x2="-378.0062" y2="1146.7979" gradientTransform="matrix(-1 0 0 1 1155.7772 0)">
				<stop  offset="0" style="stop-color:#2B3582"/>
				<stop  offset="1" style="stop-color:#150E42"/>
			</linearGradient>
			<path style="fill:url(#SVGID_00000164481440313469815880000001538574626731542944_);" d="M639.783,2903.535
				c0,24.311,19.911,44.202,44.245,44.202H3076.62c24.335,0,44.245-19.891,44.245-44.202l19.909-1374.957
				c0-24.311-28.643-71.773-81.136-68.207l-2338.305-60.503c-30.533-0.79-60.055,10.962-81.677,32.513
				c-21.622,21.551-33.452,51.017-32.731,81.522L639.783,2903.535z"/>
			
				<linearGradient id="SVGID_00000117677257520356416440000000419133728402203815_" gradientUnits="userSpaceOnUse" x1="2823.7708" y1="1337.4131" x2="762.7864" y2="3146.9109">
				<stop  offset="0" style="stop-color:#FDF53F"/>
				<stop  offset="0.6645" style="stop-color:#E57A58"/>
				<stop  offset="1" style="stop-color:#D93C65"/>
			</linearGradient>
			<path style="fill:url(#SVGID_00000117677257520356416440000000419133728402203815_);" d="M683.465,2861.129
				c0,23.022,18.836,41.859,41.859,41.859h2293.598c23.022,0,41.859-18.837,41.859-41.859l18.787-1248.198
				c-2.213-75.114-68.066-102.11-107.986-100.516l-2241.052-60.124c-21.451-0.575-42.19,7.689-57.383,22.843
				c-15.193,15.154-23.549,35.893-23.01,57.345L683.465,2861.129z"/>
			<g>
				<path style="fill:#FFFFFF;" d="M3035.996,2268.147c-0.031,0-0.061,0-0.092,0c-3.389-0.049-6.095-2.835-6.043-6.227
					l1.485-101.227c0.049-3.355,2.786-6.043,6.129-6.043c0.031,0,0.061,0,0.092,0c3.389,0.049,6.095,2.835,6.043,6.227
					l-1.485,101.227C3042.076,2265.459,3039.339,2268.147,3035.996,2268.147z"/>
				<path style="fill:#FFFFFF;" d="M3039.639,2020.089c-0.031,0-0.061,0-0.092,0c-3.389-0.049-6.095-2.841-6.043-6.227
					l5.691-387.701c-0.107-23.029-7.097-41.417-20.779-54.526c-25.54-24.468-66.086-23.219-67.795-23.139l-716.29-19.208
					c-3.386-0.086-6.059-2.908-5.967-6.294c0.089-3.386,2.691-6.27,6.298-5.964l715.864,19.208
					c4.454-0.263,47.625-1.01,76.376,26.537c16.174,15.497,24.437,36.849,24.56,63.447l-5.695,387.823
					C3045.719,2017.401,3042.983,2020.089,3039.639,2020.089z"/>
			</g>
			
				<linearGradient id="SVGID_00000099645331362757132890000009799406581393825682_" gradientUnits="userSpaceOnUse" x1="372.205" y1="2740.594" x2="-2145.1125" y2="3352.9141" gradientTransform="matrix(-1 0 0 1 1155.7772 0)">
				<stop  offset="0" style="stop-color:#2B3582"/>
				<stop  offset="1" style="stop-color:#150E42"/>
			</linearGradient>
			<path style="fill:url(#SVGID_00000099645331362757132890000009799406581393825682_);" d="M451.34,3061.876h2809.463
				c3.11,0,5.654-2.544,5.654-5.654v-109.501c0-3.11-2.544-5.654-5.654-5.654H451.34c-3.11,0-5.654,2.544-5.654,5.654v109.501
				C445.686,3059.332,448.23,3061.876,451.34,3061.876z"/>
		</g>
		<g>
			<g>
				
					<linearGradient id="SVGID_00000069356590760142643440000005539650114021806226_" gradientUnits="userSpaceOnUse" x1="512.4323" y1="1218.3029" x2="1311.332" y2="1218.3029">
					<stop  offset="0" style="stop-color:#CE1567"/>
					<stop  offset="1" style="stop-color:#7A1DBC"/>
				</linearGradient>
				<path style="fill:url(#SVGID_00000069356590760142643440000005539650114021806226_);" d="M1149.289,1541.264
					c10.315,110.251,34.534,256.014,63.642,381.623h18.279c-37.637-151.577-72.277-359.162-62.077-598.452
					c10.288-241.308,68.314-534.293-39.887-674.252c-90.052-116.483-472.177-133.897-597.834-136.461
					c-15.701-0.32-24.689,18.101-14.917,30.623c48.173,61.736,149.048,204.712,157.835,329.562
					c11.584,164.561,137.156,293.721,261.93,347.488C1061.036,1275.162,1128.229,1316.174,1149.289,1541.264z"/>
				<path style="fill:#FFFFFF;" d="M688.521,615.443c77.292,19.979,150.396,55.892,214.358,105.08
					c32.041,24.498,61.08,53.283,86.121,85.417c24.774,32.317,45.576,68.114,60.017,106.564l5.346,14.437
					c1.75,4.823,3.057,9.799,4.604,14.693c1.425,4.91,3.038,9.864,4.303,14.738l3.818,14.625
					c5.134,19.489,10.175,39.003,15.02,58.569c9.747,39.116,18.881,78.395,27.415,117.807
					c17.106,78.824,31.823,158.168,41.748,238.4c0.238,1.925-1.101,3.682-2.991,3.925c-1.824,0.235-3.495-1.028-3.824-2.847
					l-0.019-0.108c-7.055-39.491-14.86-78.988-23.398-118.249c-8.361-39.313-17.188-78.523-26.437-117.626l-14.055-58.608
					l-14.703-58.444c-4.887-19.485-9.972-38.918-15.148-58.327l-3.85-14.564c-1.278-4.86-2.811-9.465-4.202-14.209
					c-1.462-4.697-2.677-9.482-4.334-14.112l-5.054-13.863c-13.567-36.987-33.569-71.236-56.886-102.794
					c-12.001-15.527-24.557-30.698-38.492-44.558l-5.126-5.295l-5.326-5.089c-3.566-3.378-7.047-6.853-10.684-10.158
					c-7.365-6.505-14.655-13.113-22.367-19.219c-30.397-25.005-63.787-46.224-98.485-64.835
					c-34.703-18.562-71.214-34.248-108.685-45.864l-0.173-0.054c-1.463-0.453-2.287-2.027-1.842-3.518
					C685.623,615.91,687.098,615.078,688.521,615.443z"/>
			</g>
			<g>
				
					<linearGradient id="SVGID_00000011731514673422012640000011318502675979235246_" gradientUnits="userSpaceOnUse" x1="443.5434" y1="1603.2958" x2="1302.2506" y2="1603.2958">
					<stop  offset="0" style="stop-color:#A737D5"/>
					<stop  offset="1" style="stop-color:#EF497A"/>
				</linearGradient>
				<path style="fill:url(#SVGID_00000011731514673422012640000011318502675979235246_);" d="M1152.891,1690.593
					c65.353,97.724,56.962,152.404,58.97,198.716c0.355,8.222,0.8,19.845,1.735,33.577h17.846
					c-3.643-18.854-6.229-37.859-7.154-56.504c-6.356-127.909-34.687-346.221-142.987-476.814
					c-108.3-130.594-226.898-142.508-376.337-23.787c-124.534,98.933-202.215,148.861-247.773,158.143
					c-11.279,2.299-17.036,15.268-11.547,25.566c29.219,54.804,111.83,180.692,250.536,171.828
					C873.111,1710.016,1087.538,1592.869,1152.891,1690.593z"/>
				<path style="fill:#FFFFFF;" d="M755.588,1523.072c9.787-9.491,20.156-18.038,30.856-26.291
					c10.695-8.226,21.719-16.061,33.195-23.208c22.873-14.385,47.281-26.663,73.276-35.118c13-4.178,26.39-7.401,40.085-9.178
					c13.693-1.687,27.689-1.92,41.574-0.164c3.454,0.57,6.946,0.905,10.369,1.688c3.397,0.816,6.911,1.481,10.209,2.442
					l19.503,6.162l19.084,7.556l18.498,9.052c24.245,13.015,46.182,30.598,64.434,51.314c18.395,20.655,32.785,44.46,44.626,69.113
					l4.443,9.263c1.525,3.068,2.633,6.314,3.968,9.461c2.516,6.357,5.225,12.639,7.571,19.048l6.565,19.385
					c2.326,6.417,3.808,13.086,5.686,19.629c7.415,26.214,12.523,52.941,16.936,79.694c0.246,1.494-0.743,2.906-2.209,3.157
					c-1.4,0.24-2.728-0.667-3.06-2.048l-0.021-0.088c-6.231-26.218-12.225-52.475-20.796-77.874
					c-3.886-12.833-8.816-25.246-13.4-37.773c-2.469-6.188-5.286-12.216-7.905-18.327c-1.385-3.018-2.548-6.15-4.112-9.071
					l-4.558-8.83c-12.066-23.561-26.715-45.64-44.21-64.951c-17.508-19.309-38.285-35.243-61.039-47.444l-17.447-8.423
					l-18.077-7.045l-18.568-5.755c-3.083-0.892-6.107-1.48-9.162-2.246c-3.047-0.729-6.189-1.03-9.278-1.576
					c-12.462-1.665-25.21-1.564-37.871-0.093c-12.679,1.381-25.299,4.099-37.693,7.791c-24.826,7.364-48.765,18.35-71.762,31.141
					c-11.455,6.488-22.805,13.266-33.823,20.607c-10.982,7.35-21.836,15.113-32.177,23.268l-0.068,0.053
					c-1.222,0.964-2.979,0.737-3.926-0.508C754.42,1525.718,754.568,1524.068,755.588,1523.072z"/>
			</g>
		</g>
		<g>
			
				<linearGradient id="SVGID_00000070804390216148024550000010078217038130807980_" gradientUnits="userSpaceOnUse" x1="2240.5103" y1="-23.9472" x2="1491.873" y2="5425.1802">
				<stop  offset="0" style="stop-color:#53D8FF"/>
				<stop  offset="0.2057" style="stop-color:#4DB9FD"/>
				<stop  offset="1" style="stop-color:#3840F7"/>
			</linearGradient>
			<path style="fill:url(#SVGID_00000070804390216148024550000010078217038130807980_);" d="M2776.753,450.112l-1660.28-10.165
				c-54.564-0.335-98.204,45.242-95.501,99.74l114.223,2358.861h1847.582l102.585-2107.516L2776.753,450.112z"/>
			
				<linearGradient id="SVGID_00000010308213892634824370000005044161116690966960_" gradientUnits="userSpaceOnUse" x1="3064.626" y1="432.7655" x2="3708.947" y2="-463.1462">
				<stop  offset="0" style="stop-color:#53D8FF"/>
				<stop  offset="0.2057" style="stop-color:#4DB9FD"/>
				<stop  offset="1" style="stop-color:#3840F7"/>
			</linearGradient>
			<path style="fill:url(#SVGID_00000010308213892634824370000005044161116690966960_);" d="M2845.792,780.928
				c-54.083-1.903-95.662-48.516-91.4-102.464l17.798-225.245l313.498,336.43L2845.792,780.928z"/>
			<g>
				<path style="opacity:0.39;fill:#FFFFFF;" d="M2784.504,1647.511h-1440.25c-43.454,0-79.046-19.855-80.369-44.833
					l-30.093-568.091c-1.382-26.078,35.003-47.649,80.369-47.649h1470.343c44.407,0,80.406,20.703,80.406,46.242v568.091
					C2864.91,1626.808,2828.911,1647.511,2784.504,1647.511z"/>
				<path style="fill:#FFFFFF;" d="M2782.192,1652.593H1341.942c-46.436,0-83.968-21.806-85.443-49.647l-30.093-568.09
					c-0.511-9.641,3.333-19.072,11.113-27.278c15.047-15.865,43.529-25.722,74.33-25.722h1470.342
					c47.937,0,85.488,22.544,85.488,51.322v568.09C2867.679,1630.048,2830.128,1652.593,2782.192,1652.593z M1311.849,992.018
					c-28.107,0-53.764,8.642-66.956,22.552c-5.898,6.219-8.703,12.863-8.338,19.746l30.093,568.092
					c1.169,22.069,34.946,40.022,75.294,40.022h1440.249c40.831,0,75.325-18.849,75.325-41.162v-568.09
					c0-22.311-34.494-41.16-75.325-41.16H1311.849z"/>
				
					<rect x="1322.977" y="1309.878" transform="matrix(0.0049 -1 1 0.0049 332.5102 2964.0554)" style="fill:#FFFFFF;" width="665.113" height="10.162"/>
				
					<rect x="2169.838" y="1309.878" transform="matrix(0.0049 -1 1 0.0049 1175.2377 3810.9063)" style="fill:#FFFFFF;" width="665.113" height="10.162"/>
				
					<rect x="2254.815" y="568.25" transform="matrix(0.0049 -1 1 0.0049 1077.8853 3425.0938)" style="fill:#FFFFFF;" width="10.162" height="1205.417"/>
				<rect x="1653.872" y="1424.197" style="fill:#FFFFFF;" width="1208.608" height="10.162"/>
			</g>
			<g>
				<path style="opacity:0.39;fill:#FFFFFF;" d="M2786.969,2751.809h-1440.25c-43.454,0-79.046-19.855-80.369-44.833
					l-30.093-568.091c-1.381-26.078,35.003-47.649,80.369-47.649h1470.343c44.407,0,80.406,20.703,80.406,46.241v568.091
					C2867.375,2731.106,2831.376,2751.809,2786.969,2751.809z"/>
				<path style="fill:#FFFFFF;" d="M2784.658,2756.891H1344.407c-46.436,0-83.968-21.807-85.443-49.647l-30.093-568.09
					c-0.509-9.641,3.333-19.074,11.115-27.278c15.048-15.865,43.529-25.722,74.328-25.722h1470.344
					c47.937,0,85.488,22.544,85.488,51.323v568.09C2870.145,2734.346,2832.594,2756.891,2784.658,2756.891z M1314.314,2096.316
					c-28.105,0-53.76,8.641-66.954,22.551c-5.898,6.221-8.705,12.863-8.34,19.749l30.093,568.09
					c1.168,22.069,34.946,40.022,75.294,40.022h1440.251c40.831,0,75.325-18.849,75.325-41.162v-568.09
					c0-22.311-34.495-41.16-75.325-41.16H1314.314z"/>
				
					<rect x="1325.442" y="2414.176" transform="matrix(0.0049 -1 1 0.0049 -769.3223 4065.4277)" style="fill:#FFFFFF;" width="665.113" height="10.162"/>
				
					<rect x="2172.304" y="2414.176" transform="matrix(0.0049 -1 1 0.0049 73.4069 4912.2803)" style="fill:#FFFFFF;" width="665.113" height="10.162"/>
				
					<rect x="2257.281" y="1672.547" transform="matrix(0.0049 -1 1 0.0049 -23.9461 4526.4487)" style="fill:#FFFFFF;" width="10.162" height="1205.419"/>
				<rect x="1656.337" y="2528.495" style="fill:#FFFFFF;" width="1208.608" height="10.162"/>
			</g>
			<path style="opacity:0.55;fill:#FFFFFF;" d="M2705.098,874.559H1358.872c-4.285,0-7.758-3.473-7.758-7.758V765.398
				c0-4.285,3.473-7.758,7.758-7.758h1346.226c4.285,0,7.758,3.473,7.758,7.758v101.403
				C2712.856,871.086,2709.382,874.559,2705.098,874.559z"/>
			<path style="opacity:0.42;fill:#FFFFFF;" d="M2837.721,1845.723H1275.029c-3.811,0-6.9-3.089-6.9-6.9v-74.272
				c0-3.811,3.089-6.9,6.9-6.9h1562.691c3.811,0,6.9,3.089,6.9,6.9v74.272C2844.621,1842.634,2841.531,1845.723,2837.721,1845.723z"
				/>
			<path style="opacity:0.42;fill:#FFFFFF;" d="M2833.143,1981.22H1270.451c-3.811,0-6.9-3.089-6.9-6.9v-74.272
				c0-3.811,3.089-6.9,6.9-6.9h1562.692c3.811,0,6.9,3.089,6.9,6.9v74.272C2840.043,1978.13,2836.953,1981.22,2833.143,1981.22z"/>
		</g>
		<g>
			<g>
				<g>
					
						<linearGradient id="SVGID_00000084524004583525013590000002990145415566808244_" gradientUnits="userSpaceOnUse" x1="1271.589" y1="2996.9419" x2="1617.0881" y2="1081.4576">
						<stop  offset="0" style="stop-color:#2B3582"/>
						<stop  offset="0.2347" style="stop-color:#283079"/>
						<stop  offset="0.6173" style="stop-color:#202161"/>
						<stop  offset="1" style="stop-color:#150E42"/>
					</linearGradient>
					<path style="fill:url(#SVGID_00000084524004583525013590000002990145415566808244_);" d="M762.577,1887.456
						c-6.408,228.804-27.185,1018.036-17.267,1297.715c1.051,29.629,27.879,53.411,61.346,54.381
						c165.522,4.795,772.315,16.95,1043.052,6.894c56.391-2.095,101.235-42.534,102.404-92.492
						c5.627-240.16,18.039-915.636-11.463-1225.071c-3.536-37.075-36.404-66.599-78.222-70.303
						c-180.261-15.965-789.663-54.99-1023.565-41.552C796.679,1819.451,763.623,1850.042,762.577,1887.456z"/>
					
						<linearGradient id="SVGID_00000048463689959950868100000017038971034340882615_" gradientUnits="userSpaceOnUse" x1="1260.9573" y1="2415.6509" x2="1374.391" y2="1945.451">
						<stop  offset="0" style="stop-color:#A737D5"/>
						<stop  offset="1" style="stop-color:#EF497A"/>
					</linearGradient>
					<path style="fill:url(#SVGID_00000048463689959950868100000017038971034340882615_);" d="M810.116,1988.336v193.903
						c0,37.184,30.143,67.328,67.327,67.328h926.425c37.184,0,67.327-30.144,67.327-67.328v-193.903
						c0-37.184-30.143-67.328-67.327-67.328H877.443C840.26,1921.009,810.116,1951.153,810.116,1988.336z"/>
					<path style="opacity:0.2;fill:#FFFFFF;" d="M1823.943,1987.224c-8.19-8.469-19.412-13.333-31.193-13.519l-866.871-13.774
						c-23.175-0.369-42.729,17.159-44.89,40.235l-18.012,192.319c-1.475,15.748,24.431,29.005,57.459,29.407l852.254,10.327
						c32.978,0.399,60.24-12.178,60.513-27.917l3.214-185.454C1836.621,2007.069,1832.134,1995.691,1823.943,1987.224z"/>
				</g>
				
					<linearGradient id="SVGID_00000107574160634184011810000016903528855263860368_" gradientUnits="userSpaceOnUse" x1="634.9836" y1="2741.812" x2="1450.9561" y2="1956.2495">
					<stop  offset="0" style="stop-color:#53D8FF"/>
					<stop  offset="1" style="stop-color:#3840F7"/>
				</linearGradient>
				<path style="opacity:0.63;fill:url(#SVGID_00000107574160634184011810000016903528855263860368_);" d="M1041.723,2446.163
					c0,34.21-27.732,61.941-61.941,61.941h-75.407c-34.209,0-61.941-27.732-61.941-61.941l0,0c0-34.209,27.732-61.941,61.941-61.941
					h75.407C1013.99,2384.221,1041.723,2411.954,1041.723,2446.163L1041.723,2446.163z"/>
				
					<linearGradient id="SVGID_00000183931148924288521910000000975036160943732885_" gradientUnits="userSpaceOnUse" x1="769.7083" y1="2881.752" x2="1585.6809" y2="2096.1895">
					<stop  offset="0" style="stop-color:#53D8FF"/>
					<stop  offset="1" style="stop-color:#3840F7"/>
				</linearGradient>
				<path style="opacity:0.63;fill:url(#SVGID_00000183931148924288521910000000975036160943732885_);" d="M1321.804,2446.163
					c0,34.21-27.732,61.941-61.941,61.941h-75.407c-34.209,0-61.941-27.732-61.941-61.941l0,0c0-34.209,27.732-61.941,61.941-61.941
					h75.407C1294.072,2384.221,1321.804,2411.954,1321.804,2446.163L1321.804,2446.163z"/>
				
					<linearGradient id="SVGID_00000066495293159705012470000003158073464116591017_" gradientUnits="userSpaceOnUse" x1="899.2504" y1="3016.3108" x2="1715.2231" y2="2230.748">
					<stop  offset="0" style="stop-color:#53D8FF"/>
					<stop  offset="1" style="stop-color:#3840F7"/>
				</linearGradient>
				<path style="opacity:0.63;fill:url(#SVGID_00000066495293159705012470000003158073464116591017_);" d="M1591.114,2446.163
					c0,34.21-27.732,61.941-61.941,61.941h-75.407c-34.209,0-61.941-27.732-61.941-61.941l0,0c0-34.209,27.732-61.941,61.941-61.941
					h75.407C1563.382,2384.221,1591.114,2411.954,1591.114,2446.163L1591.114,2446.163z"/>
				
					<linearGradient id="SVGID_00000178904658573789513290000003988734302462854804_" gradientUnits="userSpaceOnUse" x1="1826.2264" y1="2382.7412" x2="1382.3033" y2="2906.1733">
					<stop  offset="0" style="stop-color:#E40045"/>
					<stop  offset="1" style="stop-color:#5C0E16"/>
				</linearGradient>
				<path style="fill:url(#SVGID_00000178904658573789513290000003988734302462854804_);" d="M1864.113,2455.256
					c0,34.763-28.181,62.945-62.944,62.945h-72.883c-34.764,0-62.945-28.181-62.945-62.945l0,0
					c0-34.763,28.181-62.944,62.945-62.944h72.883C1835.931,2392.312,1864.113,2420.493,1864.113,2455.256L1864.113,2455.256z"/>
				
					<linearGradient id="SVGID_00000074431981180740696630000016476605225669639814_" gradientUnits="userSpaceOnUse" x1="731.8646" y1="2842.4446" x2="1547.8364" y2="2056.8826">
					<stop  offset="0" style="stop-color:#53D8FF"/>
					<stop  offset="1" style="stop-color:#3840F7"/>
				</linearGradient>
				<path style="opacity:0.63;fill:url(#SVGID_00000074431981180740696630000016476605225669639814_);" d="M1041.723,2640.066
					c0,34.209-27.732,61.941-61.941,61.941h-75.407c-34.209,0-61.941-27.732-61.941-61.941l0,0
					c0-34.209,27.732-61.941,61.941-61.941h75.407C1013.99,2578.125,1041.723,2605.856,1041.723,2640.066L1041.723,2640.066z"/>
				
					<linearGradient id="SVGID_00000101785452099689763060000009810506912348832181_" gradientUnits="userSpaceOnUse" x1="866.5894" y1="2982.3845" x2="1682.5613" y2="2196.8225">
					<stop  offset="0" style="stop-color:#53D8FF"/>
					<stop  offset="1" style="stop-color:#3840F7"/>
				</linearGradient>
				<path style="opacity:0.63;fill:url(#SVGID_00000101785452099689763060000009810506912348832181_);" d="M1321.804,2640.066
					c0,34.209-27.732,61.941-61.941,61.941h-75.407c-34.209,0-61.941-27.732-61.941-61.941l0,0
					c0-34.209,27.732-61.941,61.941-61.941h75.407C1294.072,2578.125,1321.804,2605.856,1321.804,2640.066L1321.804,2640.066z"/>
				
					<linearGradient id="SVGID_00000109017355811039343260000001239722164175706246_" gradientUnits="userSpaceOnUse" x1="996.1329" y1="3116.9419" x2="1812.105" y2="2331.3796">
					<stop  offset="0" style="stop-color:#53D8FF"/>
					<stop  offset="1" style="stop-color:#3840F7"/>
				</linearGradient>
				<path style="opacity:0.63;fill:url(#SVGID_00000109017355811039343260000001239722164175706246_);" d="M1591.114,2640.066
					c0,34.209-27.732,61.941-61.941,61.941h-75.407c-34.209,0-61.941-27.732-61.941-61.941l0,0
					c0-34.209,27.732-61.941,61.941-61.941h75.407C1563.382,2578.125,1591.114,2605.856,1591.114,2640.066L1591.114,2640.066z"/>
				
					<linearGradient id="SVGID_00000180359555202152800750000007291946208380512392_" gradientUnits="userSpaceOnUse" x1="1130.8578" y1="3256.8816" x2="1946.8297" y2="2471.3193">
					<stop  offset="0" style="stop-color:#53D8FF"/>
					<stop  offset="1" style="stop-color:#3840F7"/>
				</linearGradient>
				<path style="fill:url(#SVGID_00000180359555202152800750000007291946208380512392_);" d="M1871.196,2640.066
					c0,34.209-27.732,61.941-61.941,61.941h-75.407c-34.209,0-61.941-27.732-61.941-61.941l0,0
					c0-34.209,27.732-61.941,61.941-61.941h75.407C1843.464,2578.125,1871.196,2605.856,1871.196,2640.066L1871.196,2640.066z"/>
				<g>
					
						<linearGradient id="SVGID_00000087399978142782854360000010029784573785319307_" gradientUnits="userSpaceOnUse" x1="817.6664" y1="2931.5676" x2="1633.6388" y2="2146.0051">
						<stop  offset="0" style="stop-color:#53D8FF"/>
						<stop  offset="1" style="stop-color:#3840F7"/>
					</linearGradient>
					<path style="opacity:0.63;fill:url(#SVGID_00000087399978142782854360000010029784573785319307_);" d="M1041.723,2811.793
						c0,34.209-27.732,61.941-61.941,61.941h-75.407c-34.209,0-61.941-27.732-61.941-61.941l0,0
						c0-34.209,27.732-61.941,61.941-61.941h75.407C1013.99,2749.852,1041.723,2777.583,1041.723,2811.793L1041.723,2811.793z"/>
					
						<linearGradient id="SVGID_00000078009796369894733520000016602964349983177123_" gradientUnits="userSpaceOnUse" x1="952.3907" y1="3071.5081" x2="1768.3633" y2="2285.9453">
						<stop  offset="0" style="stop-color:#53D8FF"/>
						<stop  offset="1" style="stop-color:#3840F7"/>
					</linearGradient>
					<path style="opacity:0.63;fill:url(#SVGID_00000078009796369894733520000016602964349983177123_);" d="M1321.804,2811.793
						c0,34.209-27.732,61.941-61.941,61.941h-75.407c-34.209,0-61.941-27.732-61.941-61.941l0,0
						c0-34.209,27.732-61.941,61.941-61.941h75.407C1294.072,2749.852,1321.804,2777.583,1321.804,2811.793L1321.804,2811.793z"/>
					
						<linearGradient id="SVGID_00000044894110477425312870000007365380953554924973_" gradientUnits="userSpaceOnUse" x1="1081.9341" y1="3206.0654" x2="1897.9067" y2="2420.5027">
						<stop  offset="0" style="stop-color:#53D8FF"/>
						<stop  offset="1" style="stop-color:#3840F7"/>
					</linearGradient>
					<path style="opacity:0.63;fill:url(#SVGID_00000044894110477425312870000007365380953554924973_);" d="M1591.114,2811.793
						c0,34.209-27.732,61.941-61.941,61.941h-75.407c-34.209,0-61.941-27.732-61.941-61.941l0,0
						c0-34.209,27.732-61.941,61.941-61.941h75.407C1563.382,2749.852,1591.114,2777.583,1591.114,2811.793L1591.114,2811.793z"/>
				</g>
				<g>
					
						<linearGradient id="SVGID_00000097492319765442393970000010659794155595605153_" gradientUnits="userSpaceOnUse" x1="911.8569" y1="3029.4043" x2="1727.8293" y2="2243.8416">
						<stop  offset="0" style="stop-color:#53D8FF"/>
						<stop  offset="1" style="stop-color:#3840F7"/>
					</linearGradient>
					<path style="opacity:0.63;fill:url(#SVGID_00000097492319765442393970000010659794155595605153_);" d="M1041.723,3000.31
						c0,34.209-27.732,61.941-61.941,61.941h-75.407c-34.209,0-61.941-27.732-61.941-61.941l0,0
						c0-34.209,27.732-61.941,61.941-61.941h75.407C1013.99,2938.368,1041.723,2966.1,1041.723,3000.31L1041.723,3000.31z"/>
					
						<linearGradient id="SVGID_00000149362602757365627350000016373412396488034702_" gradientUnits="userSpaceOnUse" x1="1046.5815" y1="3169.3442" x2="1862.5541" y2="2383.7817">
						<stop  offset="0" style="stop-color:#53D8FF"/>
						<stop  offset="1" style="stop-color:#3840F7"/>
					</linearGradient>
					<path style="opacity:0.63;fill:url(#SVGID_00000149362602757365627350000016373412396488034702_);" d="M1321.804,3000.31
						c0,34.209-27.732,61.941-61.941,61.941h-75.407c-34.209,0-61.941-27.732-61.941-61.941l0,0
						c0-34.209,27.732-61.941,61.941-61.941h75.407C1294.072,2938.368,1321.804,2966.1,1321.804,3000.31L1321.804,3000.31z"/>
					
						<linearGradient id="SVGID_00000032636720670681471440000004466451733891662749_" gradientUnits="userSpaceOnUse" x1="1176.124" y1="3303.9026" x2="1992.0968" y2="2518.3398">
						<stop  offset="0" style="stop-color:#53D8FF"/>
						<stop  offset="1" style="stop-color:#3840F7"/>
					</linearGradient>
					<path style="opacity:0.63;fill:url(#SVGID_00000032636720670681471440000004466451733891662749_);" d="M1591.114,3000.31
						c0,34.209-27.732,61.941-61.941,61.941h-75.407c-34.209,0-61.941-27.732-61.941-61.941l0,0
						c0-34.209,27.732-61.941,61.941-61.941h75.407C1563.382,2938.368,1591.114,2966.1,1591.114,3000.31L1591.114,3000.31z"/>
				</g>
				
					<linearGradient id="SVGID_00000044164032203902401680000001154647951264554664_" gradientUnits="userSpaceOnUse" x1="1677.8251" y1="3044.5781" x2="1946.4373" y2="2654.3303">
					<stop  offset="0" style="stop-color:#53D8FF"/>
					<stop  offset="1" style="stop-color:#3840F7"/>
				</linearGradient>
				<path style="fill:url(#SVGID_00000044164032203902401680000001154647951264554664_);" d="M1844.265,2995.25
					c0,43.301-35.103,78.404-78.404,78.404h-4.778c-43.301,0-78.404-35.103-78.404-78.404v-150.205
					c0-43.302,35.103-78.404,78.404-78.404h4.778c43.301,0,78.404,35.103,78.404,78.404V2995.25z"/>
			</g>
			<g style="opacity:0.7;">
				<path style="fill:#FFFFFF;" d="M1736.541,2015.267c0,7.437-6.029,13.465-13.466,13.465h-37.703
					c-7.437,0-13.466-6.029-13.466-13.465l0,0c0-7.437,6.029-13.465,13.466-13.465h37.703
					C1730.512,2001.802,1736.541,2007.831,1736.541,2015.267L1736.541,2015.267z"/>
				<path style="fill:#FFFFFF;" d="M1736.541,2198.398c0,7.437-6.029,13.466-13.466,13.466h-37.703
					c-7.437,0-13.466-6.029-13.466-13.466l0,0c0-7.436,6.029-13.465,13.466-13.465h37.703
					C1730.512,2184.932,1736.541,2190.961,1736.541,2198.398L1736.541,2198.398z"/>
				<path style="fill:#FFFFFF;" d="M1677.293,2090.674c0,7.437-6.029,13.465-13.465,13.465l0,0c-7.437,0-13.465-6.029-13.465-13.465
					v-37.703c0-7.437,6.029-13.465,13.465-13.465l0,0c7.437,0,13.465,6.029,13.465,13.465V2090.674z"/>
				<path style="fill:#FFFFFF;" d="M1677.293,2166.081c0,7.437-6.029,13.466-13.465,13.466l0,0c-7.437,0-13.465-6.029-13.465-13.466
					v-37.703c0-7.437,6.029-13.465,13.465-13.465l0,0c7.437,0,13.465,6.029,13.465,13.465V2166.081z"/>
				<path style="fill:#FFFFFF;" d="M1768.858,2090.674c0,7.437-6.029,13.465-13.465,13.465l0,0c-7.437,0-13.465-6.029-13.465-13.465
					v-37.703c0-7.437,6.029-13.465,13.465-13.465l0,0c7.437,0,13.465,6.029,13.465,13.465V2090.674z"/>
				<path style="fill:#FFFFFF;" d="M1768.858,2166.081c0,7.437-6.029,13.466-13.465,13.466l0,0c-7.437,0-13.465-6.029-13.465-13.466
					v-37.703c0-7.437,6.029-13.465,13.465-13.465l0,0c7.437,0,13.465,6.029,13.465,13.465V2166.081z"/>
			</g>
		</g>
		<g>
			<g>
				<g>
					
						<linearGradient id="SVGID_00000109010224698345926710000012542529339362832016_" gradientUnits="userSpaceOnUse" x1="2859.4634" y1="2002.3326" x2="3068.8201" y2="1759.3297" gradientTransform="matrix(0.9881 -0.1538 0.1538 0.9881 -1393.7699 179.3743)">
						<stop  offset="0" style="stop-color:#FDF53F"/>
						<stop  offset="1" style="stop-color:#D93C65"/>
					</linearGradient>
					
						<circle style="fill:url(#SVGID_00000109010224698345926710000012542529339362832016_);" cx="1912.539" cy="1440.283" r="156.082"/>
					
						<linearGradient id="SVGID_00000088855972020867275550000007778149584472066216_" gradientUnits="userSpaceOnUse" x1="3187.1199" y1="1582.0924" x2="2568.0476" y2="2517.3345" gradientTransform="matrix(0.9881 -0.1538 0.1538 0.9881 -1393.7699 179.3743)">
						<stop  offset="0" style="stop-color:#FDF53F"/>
						<stop  offset="1" style="stop-color:#D93C65"/>
					</linearGradient>
					
						<circle style="fill:url(#SVGID_00000088855972020867275550000007778149584472066216_);" cx="1912.54" cy="1440.283" r="150.893"/>
					<path style="fill:#FFFFFF;" d="M1780.725,1402.476c-0.755,0.118-1.548,0.066-2.326-0.186c-2.652-0.859-4.105-3.705-3.246-6.352
						c16.889-52.187,61.024-89.839,115.182-98.271c8.643-1.346,17.419-1.914,26.084-1.692c2.784,0.071,4.985,2.386,4.914,5.17
						c-0.07,2.788-2.37,5.007-5.174,4.915c-8.058-0.202-16.225,0.327-24.271,1.579c-50.372,7.842-91.423,42.865-107.134,91.403
						C1784.147,1400.916,1782.548,1402.192,1780.725,1402.476z"/>
					
						<ellipse transform="matrix(0.7071 -0.7071 0.7071 0.7071 -459.1042 1777.6769)" style="opacity:0.78;fill:#FFFFFF;" cx="1916.294" cy="1443.026" rx="127.712" ry="127.712"/>
					<g>
						
							<linearGradient id="SVGID_00000047779922240809851200000011382559908610942616_" gradientUnits="userSpaceOnUse" x1="3168.6514" y1="1608.8923" x2="2839.0132" y2="2162.3003" gradientTransform="matrix(0.9881 -0.1538 0.1538 0.9881 -1393.7699 179.3743)">
							<stop  offset="0" style="stop-color:#FDF53F"/>
							<stop  offset="1" style="stop-color:#D93C65"/>
						</linearGradient>
						<path style="fill:url(#SVGID_00000047779922240809851200000011382559908610942616_);" d="M1918.515,1538.767l-2.137-13.729
							c-14.401,1.655-29.084,0.481-39.823-2.356c-3.835-1.012-6.292-4.757-5.85-8.698l1.497-13.332
							c0.549-4.891,5.273-8.111,10.051-6.93c10.625,2.629,23.454,4.019,36.733,1.952c13.785-2.146,23.338-8.419,21.846-18
							c-1.345-8.644-10.09-12.547-30.049-14.704c-28.5-3.221-49.982-12.081-53.729-36.147c-3.383-21.73,9.923-40.792,36.802-49.523
							l-2.138-13.73c-0.688-4.418,2.336-8.557,6.754-9.245l8.067-1.256c4.417-0.688,8.557,2.337,9.244,6.754l1.919,12.327
							c13.326-1.532,23.319-0.768,31.388,0.729c4.134,0.767,6.933,4.656,6.47,8.835l-1.366,12.326
							c-0.527,4.753-5.012,8.01-9.692,7.027c-7.458-1.567-17.849-2.79-30.794-0.775c-16.356,2.546-19.973,10.049-19.027,16.125
							c1.164,7.476,11.777,11.089,34.058,14.321c31.793,4.383,46.373,15.036,49.902,37.7c3.237,20.795-9.273,41.887-38.453,51.216
							l2.392,15.365c0.688,4.418-2.336,8.557-6.754,9.245l-8.067,1.256C1923.343,1546.208,1919.203,1543.185,1918.515,1538.767z"/>
					</g>
				</g>
				<g>
					
						<linearGradient id="SVGID_00000000199982249180911000000005405341703185941414_" gradientUnits="userSpaceOnUse" x1="3135.2395" y1="1812.4884" x2="3476.9087" y2="1415.9086" gradientTransform="matrix(0.9881 -0.1538 0.1538 0.9881 -1393.7699 179.3743)">
						<stop  offset="0" style="stop-color:#FDF53F"/>
						<stop  offset="1" style="stop-color:#D93C65"/>
					</linearGradient>
					
						<circle style="fill:url(#SVGID_00000000199982249180911000000005405341703185941414_);" cx="2265.117" cy="1034.708" r="254.727"/>
					
						<linearGradient id="SVGID_00000057139505287035938210000004358537991426490772_" gradientUnits="userSpaceOnUse" x1="3669.9741" y1="1126.6576" x2="2659.6487" y2="2652.9712" gradientTransform="matrix(0.9881 -0.1538 0.1538 0.9881 -1393.7699 179.3743)">
						<stop  offset="0" style="stop-color:#FDF53F"/>
						<stop  offset="1" style="stop-color:#D93C65"/>
					</linearGradient>
					
						<circle style="fill:url(#SVGID_00000057139505287035938210000004358537991426490772_);" cx="2265.117" cy="1034.708" r="246.257"/>
					<path style="fill:#FFFFFF;" d="M2049.462,969.544c-0.708,0.11-1.452,0.062-2.18-0.175c-2.487-0.805-3.849-3.473-3.043-5.955
						c27.154-83.902,98.111-144.443,185.183-157.998c13.895-2.163,28.006-3.079,41.939-2.714c2.612,0.065,4.675,2.236,4.608,4.851
						c-0.068,2.61-2.232,4.701-4.852,4.603c-13.366-0.345-26.906,0.533-40.24,2.608c-83.522,13.003-151.589,71.079-177.639,151.559
						C2052.67,968.081,2051.171,969.278,2049.462,969.544z"/>
					
						<ellipse transform="matrix(0.7071 -0.7071 0.7071 0.7071 -69.5822 1910.3828)" style="opacity:0.78;fill:#FFFFFF;" cx="2271.245" cy="1039.185" rx="208.426" ry="208.426"/>
					<g>
						
							<linearGradient id="SVGID_00000099636129344536650420000004383124493648510879_" gradientUnits="userSpaceOnUse" x1="3639.8335" y1="1170.3944" x2="3101.8635" y2="2073.5569" gradientTransform="matrix(0.9881 -0.1538 0.1538 0.9881 -1393.7699 179.3743)">
							<stop  offset="0" style="stop-color:#FDF53F"/>
							<stop  offset="1" style="stop-color:#D93C65"/>
						</linearGradient>
						<path style="fill:url(#SVGID_00000099636129344536650420000004383124493648510879_);" d="M2274.87,1195.433l-3.488-22.406
							c-23.503,2.701-47.464,0.785-64.991-3.843c-6.259-1.653-10.269-7.763-9.547-14.197l2.443-21.756
							c0.896-7.981,8.606-13.238,16.403-11.309c17.339,4.289,38.278,6.559,59.949,3.185c22.497-3.502,38.087-13.742,35.654-29.376
							c-2.196-14.107-16.467-20.477-49.04-23.998c-46.512-5.257-81.571-19.718-87.685-58.992
							c-5.521-35.463,16.194-66.573,60.06-80.821l-3.488-22.408c-1.123-7.21,3.813-13.965,11.022-15.087l13.165-2.05
							c7.211-1.122,13.966,3.812,15.088,11.023l3.132,20.119c21.748-2.499,38.056-1.253,51.224,1.19
							c6.747,1.251,11.315,7.598,10.559,14.418l-2.23,20.117c-0.859,7.757-8.179,13.072-15.818,11.468
							c-12.172-2.558-29.129-4.554-50.255-1.265c-26.692,4.155-32.595,16.4-31.052,26.315c1.9,12.201,19.22,18.096,55.581,23.372
							c51.886,7.153,75.681,24.538,81.44,61.526c5.283,33.937-15.134,68.359-62.753,83.585l3.904,25.075
							c1.123,7.211-3.812,13.966-11.022,15.088l-13.166,2.05C2282.748,1207.578,2275.993,1202.644,2274.87,1195.433z"/>
					</g>
				</g>
				<g>
					
						<linearGradient id="SVGID_00000181778628211872829520000013203812520773536156_" gradientUnits="userSpaceOnUse" x1="3300.8274" y1="2393.1584" x2="3652.4011" y2="1985.0825" gradientTransform="matrix(0.9881 -0.1538 0.1538 0.9881 -1393.7699 179.3743)">
						<stop  offset="0" style="stop-color:#FDF53F"/>
						<stop  offset="1" style="stop-color:#D93C65"/>
					</linearGradient>
					
						<circle style="fill:url(#SVGID_00000181778628211872829520000013203812520773536156_);" cx="2526.223" cy="1569.858" r="262.111"/>
					
						<linearGradient id="SVGID_00000167354893931483810360000010408180530167002043_" gradientUnits="userSpaceOnUse" x1="3851.063" y1="1687.4464" x2="2811.4507" y2="3258.0044" gradientTransform="matrix(0.9881 -0.1538 0.1538 0.9881 -1393.7699 179.3743)">
						<stop  offset="0" style="stop-color:#FDF53F"/>
						<stop  offset="1" style="stop-color:#D93C65"/>
					</linearGradient>
					
						<circle style="fill:url(#SVGID_00000167354893931483810360000010408180530167002043_);" cx="2526.222" cy="1569.858" r="253.395"/>
					<path style="fill:#FFFFFF;" d="M2304.294,1502.669c-0.708,0.11-1.451,0.062-2.18-0.175c-2.487-0.805-3.848-3.473-3.043-5.955
						c27.924-86.284,100.896-148.542,190.441-162.482c14.288-2.225,28.799-3.165,43.131-2.792c2.612,0.065,4.676,2.236,4.608,4.851
						c-0.068,2.61-2.219,4.685-4.852,4.603c-13.765-0.353-27.706,0.55-41.432,2.687c-85.996,13.388-156.077,73.18-182.897,156.043
						C2307.503,1501.207,2306.003,1502.403,2304.294,1502.669z"/>
					
						<ellipse transform="matrix(0.7071 -0.7071 0.7071 0.7071 -371.5544 2251.917)" style="opacity:0.78;fill:#FFFFFF;" cx="2532.527" cy="1574.464" rx="214.468" ry="214.468"/>
					<g>
						
							<linearGradient id="SVGID_00000075126236027390753540000008570399261615398020_" gradientUnits="userSpaceOnUse" x1="3820.0486" y1="1732.4513" x2="3266.4836" y2="2661.7949" gradientTransform="matrix(0.9881 -0.1538 0.1538 0.9881 -1393.7699 179.3743)">
							<stop  offset="0" style="stop-color:#FDF53F"/>
							<stop  offset="1" style="stop-color:#D93C65"/>
						</linearGradient>
						<path style="fill:url(#SVGID_00000075126236027390753540000008570399261615398020_);" d="M2536.258,1735.242l-3.589-23.055
							c-24.185,2.779-48.84,0.808-66.875-3.955c-6.44-1.701-10.567-7.988-9.823-14.608l2.514-22.387
							c0.922-8.213,8.855-13.622,16.877-11.637c17.843,4.413,39.387,6.749,61.687,3.277c23.149-3.604,39.191-14.14,36.687-30.228
							c-2.26-14.516-16.943-21.071-50.461-24.693c-47.861-5.409-83.936-20.289-90.227-60.703
							c-5.681-36.491,16.664-68.502,61.801-83.164l-3.59-23.057c-1.155-7.419,3.923-14.37,11.343-15.525l13.546-2.109
							c7.42-1.155,14.37,3.923,15.525,11.342l3.223,20.702c22.379-2.573,39.16-1.289,52.71,1.225
							c6.942,1.288,11.643,7.818,10.865,14.837l-2.294,20.699c-0.885,7.982-8.417,13.452-16.277,11.801
							c-12.525-2.632-29.973-4.686-51.712-1.302c-27.466,4.276-33.541,16.875-31.952,27.077
							c1.955,12.555,19.778,18.621,57.192,24.05c53.39,7.361,77.875,25.25,83.8,63.309c5.437,34.92-15.571,70.34-64.572,86.008
							l4.017,25.802c1.155,7.419-3.923,14.37-11.342,15.525l-13.548,2.109C2544.364,1747.74,2537.413,1742.662,2536.258,1735.242z"
							/>
					</g>
				</g>
				<g>
					
						<linearGradient id="SVGID_00000181796377362681015280000012230571175914277253_" gradientUnits="userSpaceOnUse" x1="3699.9568" y1="1873.2878" x2="3981.1328" y2="1546.9232" gradientTransform="matrix(0.9881 -0.1538 0.1538 0.9881 -1393.7699 179.3743)">
						<stop  offset="0" style="stop-color:#FDF53F"/>
						<stop  offset="1" style="stop-color:#D93C65"/>
					</linearGradient>
					
						<circle style="fill:url(#SVGID_00000181796377362681015280000012230571175914277253_);" cx="2782.502" cy="1088.204" r="209.627"/>
					
						<linearGradient id="SVGID_00000160903380144407730300000013157285759193790130_" gradientUnits="userSpaceOnUse" x1="4140.0151" y1="1308.8849" x2="3308.571" y2="2564.96" gradientTransform="matrix(0.9881 -0.1538 0.1538 0.9881 -1393.7699 179.3743)">
						<stop  offset="0" style="stop-color:#FDF53F"/>
						<stop  offset="1" style="stop-color:#D93C65"/>
					</linearGradient>
					
						<circle style="fill:url(#SVGID_00000160903380144407730300000013157285759193790130_);" cx="2782.502" cy="1088.204" r="202.656"/>
					<path style="fill:#FFFFFF;" d="M2605.222,1035.831c-0.772,0.12-1.584,0.068-2.38-0.191c-2.714-0.88-4.201-3.791-3.321-6.5
						c22.495-69.505,81.279-119.658,153.408-130.887c11.495-1.79,23.184-2.548,34.744-2.25c2.848,0.072,5.101,2.441,5.029,5.29
						c-0.075,2.849-2.416,5.137-5.295,5.029c-10.939-0.277-22.004,0.44-32.889,2.134c-68.255,10.626-123.883,58.088-145.173,123.859
						C2608.724,1034.234,2607.088,1035.54,2605.222,1035.831z"/>
					
						<ellipse transform="matrix(0.7071 -0.7071 0.7071 0.7071 44.3718 2290.8982)" style="opacity:0.78;fill:#FFFFFF;" cx="2787.544" cy="1091.888" rx="171.523" ry="171.524"/>
					<g>
						
							<linearGradient id="SVGID_00000012439451590056248960000003040251713735044753_" gradientUnits="userSpaceOnUse" x1="4115.2114" y1="1344.8777" x2="3672.4902" y2="2088.1338" gradientTransform="matrix(0.9881 -0.1538 0.1538 0.9881 -1393.7699 179.3743)">
							<stop  offset="0" style="stop-color:#FDF53F"/>
							<stop  offset="1" style="stop-color:#D93C65"/>
						</linearGradient>
						<path style="fill:url(#SVGID_00000012439451590056248960000003040251713735044753_);" d="M2790.528,1220.472l-2.87-18.439
							c-19.342,2.223-39.061,0.646-53.485-3.163c-5.15-1.36-8.451-6.389-7.856-11.683l2.01-17.904
							c0.738-6.568,7.083-10.894,13.499-9.307c14.27,3.53,31.501,5.398,49.335,2.622c18.514-2.882,31.344-11.309,29.34-24.175
							c-1.807-11.609-13.55-16.852-40.357-19.749c-38.277-4.326-67.128-16.226-72.16-48.547
							c-4.543-29.184,13.327-54.785,49.427-66.51l-2.871-18.441c-0.924-5.934,3.137-11.493,9.071-12.417l10.833-1.687
							c5.934-0.924,11.493,3.138,12.417,9.072l2.578,16.556c17.897-2.057,31.318-1.031,42.155,0.98
							c5.552,1.03,9.311,6.253,8.69,11.865l-1.835,16.555c-0.708,6.383-6.731,10.758-13.018,9.437
							c-10.017-2.104-23.972-3.747-41.357-1.04c-21.966,3.42-26.824,13.496-25.554,21.655c1.563,10.041,15.817,14.893,45.741,19.234
							c42.699,5.887,62.281,20.194,67.02,50.633c4.348,27.928-12.454,56.256-51.643,68.786l3.213,20.635
							c0.924,5.933-3.137,11.493-9.071,12.416l-10.834,1.687C2797.011,1230.467,2791.452,1226.405,2790.528,1220.472z"/>
					</g>
				</g>
			</g>
		</g>
	</g>
</g>
</svg>
